<?xml version="1.0" encoding="UTF-8" standalone="no"?>
<!-- Created with Inkscape (http://www.inkscape.org/) -->

<svg
   width="100mm"
   height="100mm"
   viewBox="0 0 100 100"
   version="1.1"
   id="svg1"
   xmlns:xlink="http://www.w3.org/1999/xlink"
   xmlns="http://www.w3.org/2000/svg"
   xmlns:svg="http://www.w3.org/2000/svg">
  <defs
     id="defs1">
    <linearGradient
       id="linearGradient1">
      <stop
         style="stop-color:#0000ff;stop-opacity:1;"
         offset="0.49513361"
         id="stop1" />
      <stop
         style="stop-color:#0000ff;stop-opacity:0;"
         offset="1"
         id="stop2" />
    </linearGradient>
    <radialGradient
       xlink:href="#linearGradient1"
       id="radialGradient2"
       cx="175.94797"
       cy="29.689718"
       fx="175.94797"
       fy="29.689718"
       r="40.632111"
       gradientTransform="matrix(1,0,0,1.0065503,0,-0.19447692)"
       gradientUnits="userSpaceOnUse" />
    <radialGradient
       xlink:href="#linearGradient1"
       id="radialGradient3"
       gradientUnits="userSpaceOnUse"
       gradientTransform="matrix(1,0,0,1.0065503,0,-0.19447692)"
       cx="175.94797"
       cy="29.689718"
       fx="175.94797"
       fy="29.689718"
       r="40.632111" />
    <radialGradient
       xlink:href="#linearGradient1"
       id="radialGradient4"
       gradientUnits="userSpaceOnUse"
       gradientTransform="matrix(1,0,0,1.0065503,0,-0.19447692)"
       cx="175.94797"
       cy="29.689718"
       fx="175.94797"
       fy="29.689718"
       r="40.632111" />
  </defs>
  <g
     id="layer1">
    <g
       id="path14"
       transform="rotate(45.321712,88.743177,-107.71108)"
       style="fill:url(#radialGradient2)">
      <path
         style="fill:url(#radialGradient3)"
         d="m 147.67656,0.95584124 c -3.82051,3.72475846 -6.86735,8.16774486 -8.96545,13.07367176 -6.46326,15.112832 -3.15138,32.633216 8.38236,44.344074 11.53366,11.710887 29.00147,15.28946 44.21105,9.05737 15.20973,-6.232222 25.14423,-21.039145 25.14414,-37.476193 0.96189,-4.82046 -7.20496,-9.300786 -7.93654,-4.595329 -0.93639,12.8913 -6.42911,24.48991 -18.61706,30.086206 -12.35563,5.660796 -26.04412,3.634828 -34.64549,-5.127711 -8.60148,-8.76239 -10.40981,-22.523336 -4.57687,-34.828885 5.75272,-12.1057513 14.6886,-18.0703537 27.52078,-18.8440875 2.19816,-0.9418411 2.88505,-6.5575964 -1.15927,-7.8494195 -10.77567,-0.164184 -21.64114,4.6372191 -29.3577,12.16030324 z"
         id="path16" />
      <path
         style="fill:url(#radialGradient4);fill-opacity:0"
         d="m 176.56836,-10.671875 c -10.81082,-0.16472 -21.24265,3.9855812 -28.98438,11.53320313 -3.83299,3.73692407 -6.88918,8.19328397 -8.99414,13.11523487 -6.48422,15.161842 -3.16099,32.741398 8.41016,44.490234 11.57106,11.748865 29.09657,15.338238 44.35547,9.085937 15.25906,-6.252433 25.2247,-21.107303 25.22461,-37.597656 v -0.05469 l -5.15821,-5.236329 -0.0195,0.291016 c -0.93262,12.839422 -9.41845,24.794957 -21.5625,30.371094 -12.31112,5.640407 -25.93673,3.618179 -34.49609,-5.101563 -8.55947,-8.719592 -10.36284,-22.418194 -4.55078,-34.679687 5.73212,-12.0624028 17.73357,-20.3778438 30.51367,-21.1484376 l 0.29102,-0.017578 -4.97657,-5.0507814 z m -0.0547,0.267578 4.50391,4.5742189 c -12.78047,0.8789382 -24.73279,9.1994539 -30.46485,21.2617191 -5.85382,12.349605 -4.04193,26.173328 4.60157,34.978515 8.64337,8.805338 22.39479,10.837436 34.79492,5.15625 h 0.002 c 12.14538,-5.576751 20.63573,-17.481698 21.67578,-30.320312 l 4.68555,4.759765 c -0.0206,16.363152 -9.91408,31.097237 -25.05859,37.302735 -15.16026,6.211879 -32.57015,2.645565 -44.06641,-9.027344 -11.49634,-11.67288 -14.79777,-29.135397 -8.35547,-44.199219 2.09125,-4.8899032 5.12947,-9.318657 8.9375,-13.0312498 7.67912,-7.4865776 18.02197,-11.6048032 28.74414,-11.4550782 z"
         id="path17" />
    </g>
  </g>
</svg>
